HIERARCHY
ROOT Hips
{
	OFFSET 0.000000 0.000000 0.000000
	CHANNELS 6 Xposition Yposition Zposition Xrotation Yrotation Zrotation
	JOINT LeftUpLeg_virtual
	{
		OFFSET 0.000000 0.000000 0.000000
		CHANNELS 3 Xrotation Yrotation Zrotation
		JOINT LeftUpLeg
		{
			OFFSET 13.026900 -6.336304 -1.092800
			CHANNELS 3 Xrotation Yrotation Zrotation
			JOINT LeftLeg
			{
				OFFSET 0.524474 -46.096886 9.782700
				CHANNELS 3 Xrotation Yrotation Zrotation
				JOINT LeftFoot
				{
					OFFSET -0.524474 -53.427422 -12.948200
					CHANNELS 3 Xrotation Yrotation Zrotation
					JOINT LeftToeBase
					{
						OFFSET 0.192200 -14.009700 16.364100
						CHANNELS 3 Xrotation Yrotation Zrotation
						JOINT LeftToe_End
						{
							OFFSET -1.784700 -0.561700 9.474800
							CHANNELS 3 Xrotation Yrotation Zrotation
							End Site
							{
								OFFSET 0 0 0
							}
						}
					}
				}
			}
		}
	}
	JOINT RightUpLeg_virtual
	{
		OFFSET 0.000000 0.000000 0.000000
		CHANNELS 3 Xrotation Yrotation Zrotation
		JOINT RightUpLeg
		{
			OFFSET -12.883000 -6.336304 -1.092800
			CHANNELS 3 Xrotation Yrotation Zrotation
			JOINT RightLeg
			{
				OFFSET -0.524587 -46.096825 9.782800
				CHANNELS 3 Xrotation Yrotation Zrotation
				JOINT RightFoot
				{
					OFFSET 0.524587 -53.427383 -12.948300
					CHANNELS 3 Xrotation Yrotation Zrotation
					JOINT RightToeBase
					{
						OFFSET -0.192200 -14.009700 16.364100
						CHANNELS 3 Xrotation Yrotation Zrotation
						JOINT RightToe_End
						{
							OFFSET 1.784700 -0.561700 9.474800
							CHANNELS 3 Xrotation Yrotation Zrotation
							End Site
							{
								OFFSET 0 0 0
							}
						}
					}
				}
			}
		}
	}
	JOINT Spine_virtual
	{
		OFFSET 0.000000 0.000000 0.000000
		CHANNELS 3 Xrotation Yrotation Zrotation
		JOINT Spine
		{
			OFFSET 0.072000 7.257294 -0.789700
			CHANNELS 3 Xrotation Yrotation Zrotation
			JOINT Spine1
			{
				OFFSET 0.000000 12.508769 -0.658067
				CHANNELS 3 Xrotation Yrotation Zrotation
				JOINT Spine1_split
				{
					OFFSET 0.000000 12.508769 -0.658067
					CHANNELS 3 Xrotation Yrotation Zrotation
					JOINT Spine2
					{
						OFFSET 0.000000 12.508769 -0.658067
						CHANNELS 3 Xrotation Yrotation Zrotation
						JOINT Neck_virtual
						{
							OFFSET 0.000000 0.000000 0.000000
							CHANNELS 3 Xrotation Yrotation Zrotation
							JOINT Neck
							{
								OFFSET 0.000000 14.033295 7.520400
								CHANNELS 3 Xrotation Yrotation Zrotation
								JOINT Head
								{
									OFFSET 0.000000 8.198502 5.703100
									CHANNELS 3 Xrotation Yrotation Zrotation
									JOINT HeadTop_End
									{
										OFFSET 0.000000 17.760803 13.332701
										CHANNELS 3 Xrotation Yrotation Zrotation
										End Site
										{
											OFFSET 0 0 0
										}
									}
								}
							}
						}
						JOINT LeftShoulder_virtual
						{
							OFFSET 0.000000 0.000000 0.000000
							CHANNELS 3 Xrotation Yrotation Zrotation
							JOINT LeftShoulder
							{
								OFFSET 6.292450 5.785301 -0.669000
								CHANNELS 3 Xrotation Yrotation Zrotation
								JOINT LeftShoulder_split
								{
									OFFSET 6.292450 5.785301 -0.669000
									CHANNELS 3 Xrotation Yrotation Zrotation
									JOINT LeftArm
									{
										OFFSET 13.907140 -6.093903 1.965100
										CHANNELS 3 Xrotation Yrotation Zrotation
										JOINT LeftForeArm
										{
											OFFSET 34.140198 0.000000 0.000000
											CHANNELS 3 Xrotation Yrotation Zrotation
											JOINT LeftHand
											{
												OFFSET 40.960209 0.000000 0.000000
												CHANNELS 3 Xrotation Yrotation Zrotation
												End Site
												{
													OFFSET 0 0 0
												}
											}
										}
									}
								}
							}
						}
						JOINT RightShoulder_virtual
						{
							OFFSET 0.000000 0.000000 0.000000
							CHANNELS 3 Xrotation Yrotation Zrotation
							JOINT RightShoulder
							{
								OFFSET -6.292450 5.785301 -0.669000
								CHANNELS 3 Xrotation Yrotation Zrotation
								JOINT RightShoulder_split
								{
									OFFSET -6.292450 5.785301 -0.669000
									CHANNELS 3 Xrotation Yrotation Zrotation
									JOINT RightArm
									{
										OFFSET -13.907140 -6.093903 1.965100
										CHANNELS 3 Xrotation Yrotation Zrotation
										JOINT RightForeArm
										{
											OFFSET -34.140198 0.000000 0.000000
											CHANNELS 3 Xrotation Yrotation Zrotation
											JOINT RightHand
											{
												OFFSET -40.960209 0.000000 0.000000
												CHANNELS 3 Xrotation Yrotation Zrotation
												End Site
												{
													OFFSET 0 0 0
												}
											}
										}
									}
								}
							}
						}
					}
				}
			}
		}
	}
}
MOTION
Frames: 5
Frame Time: 0.03333333
2.085269 69.377716 24.839584 0.000000 0.000000 0.000000 8.487609 5.141869 1.500998 -94.138482 -7.448801 12.535596 83.708886 1.789603 -1.468676 9.176737 -4.738848 -8.969032 -4.365759 -0.075122 -0.127943 0.000000 0.000000 0.000000 8.379092 4.613442 1.552536 -98.394216 13.510156 -13.885992 88.063350 0.275151 -0.186571 6.292527 -0.698602 10.795497 0.470674 0.943722 0.183166 0.000000 0.000000 0.000000 9.161702 3.203965 1.226977 5.990307 -1.791285 -2.257275 15.292734 -1.212774 -0.748136 1.069425 0.360600 0.181677 0.000000 0.000000 0.000000 16.709339 -1.173544 -0.603507 -2.339940 -2.791731 -1.276866 -52.843958 2.260129 -8.037621 0.000000 0.000000 0.000000 16.146711 -1.414227 -0.385395 0.640632 -15.849174 4.536704 -3.892670 -4.884870 -1.818131 -61.381817 -27.660789 -15.698365 176.852695 -69.703938 178.680208 0.000000 0.000000 0.000000 14.947719 -1.804822 -0.541868 1.746722 14.424168 -3.205861 3.867179 0.470399 4.434589 -85.341130 29.695436 30.253749 -178.436534 53.619714 175.079728 0.000000 0.000000 0.000000 
2.085405 69.439415 24.780323 0.000000 0.000000 0.000000 8.920277 4.918310 1.275939 -94.473093 -7.805522 12.408395 83.352391 1.683628 -1.336801 9.296138 -4.879235 -9.023810 -4.247726 -0.049176 -0.127417 0.000000 0.000000 0.000000 8.783640 4.375788 1.345345 -98.495426 13.372536 -13.678020 87.656838 0.281634 -0.304544 6.090840 -0.656478 10.938112 0.594813 0.929278 0.203245 0.000000 0.000000 0.000000 9.622418 3.200837 0.984559 5.863775 -1.795916 -2.245651 15.651542 -1.234879 -0.650822 0.776691 0.296497 0.169217 0.000000 0.000000 0.000000 16.996805 -1.112317 -0.592603 -0.276240 -2.919104 -1.298870 -51.721614 2.692554 -7.872963 0.000000 0.000000 0.000000 16.542860 -1.384840 -0.332884 0.619597 -14.820353 5.356425 -3.429272 -4.692606 -1.688032 -60.411787 -26.894070 -15.846290 177.371489 -68.917995 179.374619 0.000000 0.000000 0.000000 15.485000 -1.770378 -0.486811 1.455256 13.473783 -2.661416 3.235517 1.133515 4.260476 -83.790404 30.289963 29.426289 -178.385007 53.792364 175.273555 0.000000 0.000000 0.000000 
2.035226 69.482590 24.783070 0.000000 0.000000 0.000000 9.405452 4.682855 1.130876 -94.756369 -8.113554 12.191002 82.963344 1.644882 -1.214302 9.408228 -4.963022 -9.052699 -4.170248 -0.034827 -0.090452 0.000000 0.000000 0.000000 9.248824 4.213817 1.200369 -98.629400 13.302137 -13.517464 87.207043 0.263761 -0.378504 5.921423 -0.651077 11.021020 0.648818 0.914264 0.264221 0.000000 0.000000 0.000000 10.110722 3.314456 0.733259 5.814083 -1.804948 -2.212476 16.177518 -1.197352 -0.620084 0.609248 0.409911 0.287126 0.000000 0.000000 0.000000 17.363104 -1.011632 -0.634003 2.526406 -2.998857 -1.509000 -50.281305 2.843560 -7.909758 0.000000 0.000000 0.000000 17.132426 -1.316332 -0.355251 0.635161 -14.212311 6.218946 -2.591971 -4.939326 -1.583703 -57.556720 -25.398530 -15.852396 178.080954 -67.473533 -179.737261 0.000000 0.000000 0.000000 16.261308 -1.659371 -0.500070 1.160568 12.733251 -1.915550 2.862468 1.992198 4.152494 -80.832816 31.355397 28.167186 -178.343411 54.595942 175.474841 0.000000 0.000000 0.000000 
1.955561 69.468643 24.834438 0.000000 0.000000 0.000000 9.908096 4.454393 1.094699 -94.987584 -8.286606 11.951464 82.661784 1.685410 -1.147251 9.502548 -4.943821 -9.029072 -4.155153 -0.031827 -0.022411 0.000000 0.000000 0.000000 9.745093 4.152320 1.149109 -98.834866 13.297733 -13.466710 86.821690 0.230241 -0.397764 5.817670 -0.660950 11.067769 0.602965 0.899776 0.345298 0.000000 0.000000 0.000000 10.566528 3.505914 0.536733 5.802469 -1.832864 -2.189197 16.691893 -1.133223 -0.651867 0.553557 0.393189 0.375604 0.000000 0.000000 0.000000 17.687034 -0.902861 -0.713402 5.549296 -3.005771 -1.906595 -48.895091 2.665378 -8.175596 0.000000 0.000000 0.000000 17.699554 -1.230823 -0.449576 0.668759 -14.071033 6.888921 -1.563644 -5.688575 -1.595876 -53.300354 -23.938804 -15.586820 178.673924 -65.636567 -178.997347 0.000000 0.000000 0.000000 17.034536 -1.509167 -0.558935 0.933976 12.257998 -1.184256 2.601756 2.510784 4.064161 -76.958146 32.622537 26.488896 -178.400156 55.662985 175.770492 0.000000 0.000000 0.000000 
1.863796 69.412476 24.991730 0.000000 0.000000 0.000000 10.387679 4.314820 1.161539 -95.193426 -8.282187 11.771361 82.536197 1.789973 -1.157904 9.559067 -4.791408 -8.954638 -4.155497 -0.035361 0.054224 0.000000 0.000000 0.000000 10.246549 4.203151 1.187181 -99.126235 13.353306 -13.557370 86.572450 0.189761 -0.355766 5.782842 -0.664062 11.107317 0.521961 0.890863 0.419027 0.000000 0.000000 0.000000 10.970138 3.771875 0.430055 5.812273 -1.887907 -2.195290 16.997260 -1.090452 -0.715454 0.693345 0.452638 0.497063 0.000000 0.000000 0.000000 17.841576 -0.815132 -0.777963 8.174109 -2.916664 -2.400607 -47.850441 2.265936 -8.646042 0.000000 0.000000 0.000000 18.023172 -1.171892 -0.564883 0.710091 -14.477438 7.294605 -0.754136 -6.398184 -1.621035 -48.974919 -22.998150 -14.855731 178.971433 -64.030565 -178.605936 0.000000 0.000000 0.000000 17.538831 -1.370612 -0.617827 0.794938 12.056457 -0.718753 2.356207 2.622128 3.993840 -73.070989 33.733106 24.626112 -178.577946 56.329636 176.122356 0.000000 0.000000 0.000000 
